<mxfile host="app.diagrams.net" modified="2020-10-20T22:09:34.317Z" agent="5.0 (Macintosh; Intel Mac OS X 10_15_6) AppleWebKit/537.36 (KHTML, like Gecko) Chrome/86.0.4240.75 Safari/537.36" etag="bf7xQAky0J91P9iJQpDZ" version="13.8.1" type="github">
  <diagram name="Page-1" id="74b105a0-9070-1c63-61bc-23e55f88626e">
    <mxGraphModel dx="2039" dy="1614" grid="1" gridSize="10" guides="1" tooltips="1" connect="1" arrows="1" fold="1" page="1" pageScale="1.5" pageWidth="1000" pageHeight="700" math="0" shadow="0">
      <root>
        <mxCell id="0" style=";html=1;" />
        <mxCell id="1" style=";html=1;" parent="0" />
        <mxCell id="_j7o3qWeJItCtNG2WgHt-128" value="" style="group;fontSize=17;" vertex="1" connectable="0" parent="1">
          <mxGeometry x="24" y="100" width="1452.5" height="830" as="geometry" />
        </mxCell>
        <mxCell id="_j7o3qWeJItCtNG2WgHt-25" value="" style="rounded=0;whiteSpace=wrap;html=1;sketch=0;strokeColor=#006658;fillColor=#21C0A5;fontColor=#5C5C5C;fontSize=17;" vertex="1" parent="_j7o3qWeJItCtNG2WgHt-128">
          <mxGeometry x="182.9345088161209" y="433.30882352941177" width="146.34760705289673" height="73.23529411764706" as="geometry" />
        </mxCell>
        <mxCell id="_j7o3qWeJItCtNG2WgHt-23" value="" style="group;fontSize=17;" vertex="1" connectable="0" parent="_j7o3qWeJItCtNG2WgHt-128">
          <mxGeometry x="379.284214945424" y="214.8235294117647" width="548.8035264483627" height="218.48529411764704" as="geometry" />
        </mxCell>
        <mxCell id="_j7o3qWeJItCtNG2WgHt-13" value="" style="rounded=1;whiteSpace=wrap;html=1;sketch=0;strokeColor=#006658;fontColor=#5C5C5C;opacity=70;strokeWidth=2;shadow=0;fillColor=#D5E8D4;glass=0;fontSize=17;" vertex="1" parent="_j7o3qWeJItCtNG2WgHt-23">
          <mxGeometry x="17.70333956285041" y="9.103553921568626" width="531.1001868855124" height="209.3817401960784" as="geometry" />
        </mxCell>
        <mxCell id="_j7o3qWeJItCtNG2WgHt-7" value="cf-api-server Pod" style="rounded=1;whiteSpace=wrap;html=1;sketch=0;strokeColor=#006658;fontColor=#5C5C5C;strokeWidth=2;shadow=0;fillColor=#D5E8D4;glass=0;labelPosition=center;verticalLabelPosition=top;align=center;verticalAlign=bottom;fontSize=17;" vertex="1" parent="_j7o3qWeJItCtNG2WgHt-23">
          <mxGeometry width="531.0954659949623" height="201.6787330316742" as="geometry" />
        </mxCell>
        <mxCell id="_j7o3qWeJItCtNG2WgHt-36" value="/tmp/" style="image;html=1;image=img/lib/clip_art/general/Empty_Folder_128x128.png;rounded=0;shadow=0;glass=0;sketch=0;strokeColor=#006658;strokeWidth=2;fillColor=#21C0A5;fontColor=#5C5C5C;fontSize=17;" vertex="1" parent="_j7o3qWeJItCtNG2WgHt-23">
          <mxGeometry x="280.4995801847187" y="24.41176470588235" width="54.88035264483627" height="36.61764705882353" as="geometry" />
        </mxCell>
        <mxCell id="_j7o3qWeJItCtNG2WgHt-20" value="registry-buddy" style="rounded=0;whiteSpace=wrap;html=1;sketch=0;strokeColor=#006658;fillColor=#21C0A5;fontColor=#5C5C5C;fontSize=17;" vertex="1" parent="_j7o3qWeJItCtNG2WgHt-23">
          <mxGeometry x="402.455919395466" y="79.33823529411764" width="109.76070528967254" height="30.514705882352942" as="geometry" />
        </mxCell>
        <mxCell id="_j7o3qWeJItCtNG2WgHt-38" style="edgeStyle=orthogonalEdgeStyle;rounded=1;sketch=0;orthogonalLoop=1;jettySize=auto;html=1;exitX=1;exitY=0.5;exitDx=0;exitDy=0;entryX=0.25;entryY=0;entryDx=0;entryDy=0;strokeColor=#006658;fillColor=#21C0A5;fontColor=#5C5C5C;fontSize=17;" edge="1" parent="_j7o3qWeJItCtNG2WgHt-23" source="_j7o3qWeJItCtNG2WgHt-36" target="_j7o3qWeJItCtNG2WgHt-20">
          <mxGeometry relative="1" as="geometry" />
        </mxCell>
        <mxCell id="_j7o3qWeJItCtNG2WgHt-4" value="CF CLI" style="rounded=0;whiteSpace=wrap;html=1;sketch=0;strokeColor=#006658;fillColor=#21C0A5;fontColor=#5C5C5C;fontSize=17;" vertex="1" parent="_j7o3qWeJItCtNG2WgHt-128">
          <mxGeometry y="421.10294117647055" width="146.34760705289673" height="73.23529411764706" as="geometry" />
        </mxCell>
        <mxCell id="_j7o3qWeJItCtNG2WgHt-9" style="edgeStyle=orthogonalEdgeStyle;curved=0;rounded=1;sketch=0;orthogonalLoop=1;jettySize=auto;html=1;exitX=1;exitY=0.5;exitDx=0;exitDy=0;entryX=0;entryY=0.5;entryDx=0;entryDy=0;strokeColor=#006658;fillColor=#21C0A5;fontColor=#5C5C5C;fontSize=17;" edge="1" parent="_j7o3qWeJItCtNG2WgHt-128" source="_j7o3qWeJItCtNG2WgHt-5" target="_j7o3qWeJItCtNG2WgHt-7">
          <mxGeometry relative="1" as="geometry" />
        </mxCell>
        <mxCell id="_j7o3qWeJItCtNG2WgHt-5" value="istio-ingressgateway" style="rounded=0;whiteSpace=wrap;html=1;sketch=0;strokeColor=#006658;fillColor=#21C0A5;fontColor=#5C5C5C;fontSize=17;" vertex="1" parent="_j7o3qWeJItCtNG2WgHt-128">
          <mxGeometry x="170.7388748950462" y="421.10294117647055" width="146.34760705289673" height="73.23529411764706" as="geometry" />
        </mxCell>
        <mxCell id="_j7o3qWeJItCtNG2WgHt-6" value="" style="endArrow=classic;html=1;strokeColor=#006658;fillColor=#21C0A5;fontColor=#5C5C5C;entryX=0;entryY=0.5;entryDx=0;entryDy=0;fontSize=17;" edge="1" parent="_j7o3qWeJItCtNG2WgHt-128" source="_j7o3qWeJItCtNG2WgHt-4" target="_j7o3qWeJItCtNG2WgHt-5">
          <mxGeometry width="50" height="50" relative="1" as="geometry">
            <mxPoint x="878.0856423173803" y="689.6323529411765" as="sourcePoint" />
            <mxPoint x="829.3031066330815" y="628.6029411764706" as="targetPoint" />
          </mxGeometry>
        </mxCell>
        <mxCell id="_j7o3qWeJItCtNG2WgHt-27" value="CCDB&lt;br style=&quot;font-size: 17px;&quot;&gt;cf-db Pod" style="shape=datastore;whiteSpace=wrap;html=1;rounded=0;shadow=0;glass=0;sketch=0;strokeColor=#006658;strokeWidth=2;fillColor=#21C0A5;fontColor=#5C5C5C;fontSize=17;" vertex="1" parent="_j7o3qWeJItCtNG2WgHt-128">
          <mxGeometry x="634.3071158690176" y="507.7647058823529" width="103.66288832913519" height="97.6470588235294" as="geometry" />
        </mxCell>
        <mxCell id="_j7o3qWeJItCtNG2WgHt-28" value="" style="rounded=1;sketch=0;orthogonalLoop=1;jettySize=auto;html=1;strokeColor=#006658;fillColor=#21C0A5;fontColor=#5C5C5C;entryX=0.5;entryY=0;entryDx=0;entryDy=0;edgeStyle=orthogonalEdgeStyle;endArrow=classic;endFill=1;fontSize=17;" edge="1" parent="_j7o3qWeJItCtNG2WgHt-128" source="_j7o3qWeJItCtNG2WgHt-17" target="_j7o3qWeJItCtNG2WgHt-27">
          <mxGeometry relative="1" as="geometry">
            <mxPoint x="626.855583543241" y="458.94117647058823" as="targetPoint" />
          </mxGeometry>
        </mxCell>
        <mxCell id="_j7o3qWeJItCtNG2WgHt-111" style="edgeStyle=orthogonalEdgeStyle;rounded=1;sketch=0;orthogonalLoop=1;jettySize=auto;html=1;entryX=0.5;entryY=1;entryDx=0;entryDy=0;startArrow=none;startFill=0;endArrow=classic;endFill=1;strokeColor=#006658;fillColor=#21C0A5;fontColor=#5C5C5C;fontSize=17;" edge="1" parent="_j7o3qWeJItCtNG2WgHt-128" source="_j7o3qWeJItCtNG2WgHt-17" target="_j7o3qWeJItCtNG2WgHt-20">
          <mxGeometry relative="1" as="geometry" />
        </mxCell>
        <mxCell id="_j7o3qWeJItCtNG2WgHt-17" value="cf-api-server" style="rounded=0;whiteSpace=wrap;html=1;sketch=0;strokeColor=#006658;fillColor=#21C0A5;fontColor=#5C5C5C;fontSize=17;" vertex="1" parent="_j7o3qWeJItCtNG2WgHt-128">
          <mxGeometry x="635.3925272879934" y="312.4705882352941" width="101.50426112510496" height="73.23529411764706" as="geometry" />
        </mxCell>
        <mxCell id="_j7o3qWeJItCtNG2WgHt-18" value="" style="edgeStyle=orthogonalEdgeStyle;curved=0;rounded=1;sketch=0;orthogonalLoop=1;jettySize=auto;html=1;strokeColor=#006658;fillColor=#21C0A5;fontColor=#5C5C5C;fontSize=17;" edge="1" parent="_j7o3qWeJItCtNG2WgHt-128" source="_j7o3qWeJItCtNG2WgHt-12" target="_j7o3qWeJItCtNG2WgHt-17">
          <mxGeometry relative="1" as="geometry" />
        </mxCell>
        <mxCell id="_j7o3qWeJItCtNG2WgHt-14" value="istio-proxy" style="rounded=0;whiteSpace=wrap;html=1;sketch=0;strokeColor=#006658;fillColor=#21C0A5;fontColor=#5C5C5C;fontSize=17;" vertex="1" parent="_j7o3qWeJItCtNG2WgHt-128">
          <mxGeometry x="420.2005667506297" y="312.4705882352941" width="81.03998740554157" height="73.23529411764706" as="geometry" />
        </mxCell>
        <mxCell id="_j7o3qWeJItCtNG2WgHt-15" value="" style="endArrow=classic;html=1;strokeColor=#006658;fillColor=#21C0A5;fontColor=#5C5C5C;exitX=0;exitY=0.5;exitDx=0;exitDy=0;entryX=0;entryY=0.5;entryDx=0;entryDy=0;edgeStyle=elbowEdgeStyle;fontSize=17;" edge="1" parent="_j7o3qWeJItCtNG2WgHt-128" source="_j7o3qWeJItCtNG2WgHt-7" target="_j7o3qWeJItCtNG2WgHt-14">
          <mxGeometry width="50" height="50" relative="1" as="geometry">
            <mxPoint x="526.418637090003" y="92.76470588235294" as="sourcePoint" />
            <mxPoint x="614.9353349042551" y="31.735294117647058" as="targetPoint" />
          </mxGeometry>
        </mxCell>
        <mxCell id="_j7o3qWeJItCtNG2WgHt-16" value="" style="endArrow=classic;html=1;strokeColor=#006658;fillColor=#21C0A5;fontColor=#5C5C5C;exitX=1;exitY=0.5;exitDx=0;exitDy=0;entryX=0;entryY=0.5;entryDx=0;entryDy=0;fontSize=17;" edge="1" parent="_j7o3qWeJItCtNG2WgHt-128" source="_j7o3qWeJItCtNG2WgHt-14" target="_j7o3qWeJItCtNG2WgHt-12">
          <mxGeometry width="50" height="50" relative="1" as="geometry">
            <mxPoint x="526.418637090003" y="92.76470588235294" as="sourcePoint" />
            <mxPoint x="614.9353349042551" y="31.735294117647058" as="targetPoint" />
          </mxGeometry>
        </mxCell>
        <mxCell id="_j7o3qWeJItCtNG2WgHt-37" style="edgeStyle=orthogonalEdgeStyle;rounded=1;sketch=0;orthogonalLoop=1;jettySize=auto;html=1;entryX=0;entryY=0.5;entryDx=0;entryDy=0;strokeColor=#006658;fillColor=#21C0A5;fontColor=#5C5C5C;exitX=0.5;exitY=0;exitDx=0;exitDy=0;fontSize=17;" edge="1" parent="_j7o3qWeJItCtNG2WgHt-128" source="_j7o3qWeJItCtNG2WgHt-12" target="_j7o3qWeJItCtNG2WgHt-36">
          <mxGeometry relative="1" as="geometry" />
        </mxCell>
        <mxCell id="_j7o3qWeJItCtNG2WgHt-12" value="nginx" style="rounded=0;whiteSpace=wrap;html=1;sketch=0;strokeColor=#006658;fillColor=#21C0A5;fontColor=#5C5C5C;fontSize=17;" vertex="1" parent="_j7o3qWeJItCtNG2WgHt-128">
          <mxGeometry x="525.6318219983208" y="312.4705882352941" width="85.75969773299748" height="73.23529411764706" as="geometry" />
        </mxCell>
        <mxCell id="_j7o3qWeJItCtNG2WgHt-30" style="edgeStyle=orthogonalEdgeStyle;rounded=1;sketch=0;orthogonalLoop=1;jettySize=auto;html=1;entryX=0.5;entryY=0;entryDx=0;entryDy=0;strokeColor=#006658;fillColor=#21C0A5;fontColor=#5C5C5C;exitX=0.5;exitY=1;exitDx=0;exitDy=0;fontSize=17;" edge="1" parent="_j7o3qWeJItCtNG2WgHt-128" source="_j7o3qWeJItCtNG2WgHt-19" target="_j7o3qWeJItCtNG2WgHt-27">
          <mxGeometry relative="1" as="geometry" />
        </mxCell>
        <mxCell id="_j7o3qWeJItCtNG2WgHt-40" style="edgeStyle=orthogonalEdgeStyle;rounded=1;sketch=0;orthogonalLoop=1;jettySize=auto;html=1;exitX=0.5;exitY=0;exitDx=0;exitDy=0;entryX=0.5;entryY=1;entryDx=0;entryDy=0;strokeColor=#006658;fillColor=#21C0A5;fontColor=#5C5C5C;fontSize=17;" edge="1" parent="_j7o3qWeJItCtNG2WgHt-128" source="_j7o3qWeJItCtNG2WgHt-19" target="_j7o3qWeJItCtNG2WgHt-20">
          <mxGeometry relative="1" as="geometry" />
        </mxCell>
        <mxCell id="_j7o3qWeJItCtNG2WgHt-19" value="cf-api-local-worker" style="rounded=0;whiteSpace=wrap;html=1;sketch=0;strokeColor=#006658;fillColor=#21C0A5;fontColor=#5C5C5C;fontSize=17;" vertex="1" parent="_j7o3qWeJItCtNG2WgHt-128">
          <mxGeometry x="745.1532325776657" y="355.19117647058823" width="146.34760705289673" height="30.514705882352942" as="geometry" />
        </mxCell>
        <mxCell id="_j7o3qWeJItCtNG2WgHt-32" style="edgeStyle=orthogonalEdgeStyle;rounded=1;sketch=0;orthogonalLoop=1;jettySize=auto;html=1;entryX=0.5;entryY=1;entryDx=0;entryDy=0;strokeColor=#006658;fillColor=#21C0A5;fontColor=#5C5C5C;fontSize=17;" edge="1" parent="_j7o3qWeJItCtNG2WgHt-128" source="_j7o3qWeJItCtNG2WgHt-20" target="_j7o3qWeJItCtNG2WgHt-31">
          <mxGeometry relative="1" as="geometry" />
        </mxCell>
        <mxCell id="_j7o3qWeJItCtNG2WgHt-31" value="image registry" style="shape=datastore;whiteSpace=wrap;html=1;rounded=0;shadow=0;glass=0;sketch=0;strokeColor=#006658;strokeWidth=2;fillColor=#21C0A5;fontColor=#5C5C5C;fontSize=17;" vertex="1" parent="_j7o3qWeJItCtNG2WgHt-128">
          <mxGeometry x="784.7890428211587" y="20.00294117647058" width="103.66288832913519" height="97.6470588235294" as="geometry" />
        </mxCell>
        <mxCell id="_j7o3qWeJItCtNG2WgHt-43" value="uaa" style="rounded=0;whiteSpace=wrap;html=1;sketch=0;strokeColor=#006658;fillColor=#21C0A5;fontColor=#5C5C5C;fontSize=17;" vertex="1" parent="_j7o3qWeJItCtNG2WgHt-128">
          <mxGeometry x="379.284214945424" y="744.5588235294117" width="146.34760705289673" height="73.23529411764706" as="geometry" />
        </mxCell>
        <mxCell id="_j7o3qWeJItCtNG2WgHt-45" style="edgeStyle=orthogonalEdgeStyle;rounded=1;sketch=0;orthogonalLoop=1;jettySize=auto;html=1;strokeColor=#006658;fillColor=#21C0A5;fontColor=#5C5C5C;entryX=0;entryY=0.5;entryDx=0;entryDy=0;fontSize=17;" edge="1" parent="_j7o3qWeJItCtNG2WgHt-128" source="_j7o3qWeJItCtNG2WgHt-5" target="_j7o3qWeJItCtNG2WgHt-43">
          <mxGeometry relative="1" as="geometry" />
        </mxCell>
        <mxCell id="_j7o3qWeJItCtNG2WgHt-46" value="UAADB&lt;br style=&quot;font-size: 17px;&quot;&gt;cf-db Pod" style="shape=datastore;whiteSpace=wrap;html=1;rounded=0;shadow=0;glass=0;sketch=0;strokeColor=#006658;strokeWidth=2;fillColor=#21C0A5;fontColor=#5C5C5C;fontSize=17;" vertex="1" parent="_j7o3qWeJItCtNG2WgHt-128">
          <mxGeometry x="550.0230898404702" y="732.3529411764706" width="103.66288832913519" height="97.6470588235294" as="geometry" />
        </mxCell>
        <mxCell id="_j7o3qWeJItCtNG2WgHt-47" style="edgeStyle=orthogonalEdgeStyle;rounded=1;sketch=0;orthogonalLoop=1;jettySize=auto;html=1;strokeColor=#006658;fillColor=#21C0A5;fontColor=#5C5C5C;fontSize=17;" edge="1" parent="_j7o3qWeJItCtNG2WgHt-128" source="_j7o3qWeJItCtNG2WgHt-43" target="_j7o3qWeJItCtNG2WgHt-46">
          <mxGeometry relative="1" as="geometry" />
        </mxCell>
        <mxCell id="_j7o3qWeJItCtNG2WgHt-48" value="log-cache" style="rounded=0;whiteSpace=wrap;html=1;sketch=0;strokeColor=#006658;fillColor=#21C0A5;fontColor=#5C5C5C;fontSize=17;" vertex="1" parent="_j7o3qWeJItCtNG2WgHt-128">
          <mxGeometry x="379.284214945424" y="634.7058823529411" width="146.34760705289673" height="73.23529411764706" as="geometry" />
        </mxCell>
        <mxCell id="_j7o3qWeJItCtNG2WgHt-50" value="metric-proxy" style="rounded=0;whiteSpace=wrap;html=1;sketch=0;strokeColor=#006658;fillColor=#21C0A5;fontColor=#5C5C5C;fontSize=17;" vertex="1" parent="_j7o3qWeJItCtNG2WgHt-128">
          <mxGeometry x="379.284214945424" y="532.1764705882352" width="146.34760705289673" height="73.23529411764706" as="geometry" />
        </mxCell>
        <mxCell id="_j7o3qWeJItCtNG2WgHt-51" value="eirini opi" style="rounded=0;whiteSpace=wrap;html=1;sketch=0;strokeColor=#006658;fillColor=#21C0A5;fontColor=#5C5C5C;fontSize=17;" vertex="1" parent="_j7o3qWeJItCtNG2WgHt-128">
          <mxGeometry x="1025.6528127623847" y="333.83088235294116" width="97.56507136859781" height="73.23529411764706" as="geometry" />
        </mxCell>
        <mxCell id="_j7o3qWeJItCtNG2WgHt-49" style="edgeStyle=orthogonalEdgeStyle;rounded=1;sketch=0;orthogonalLoop=1;jettySize=auto;html=1;exitX=1;exitY=0.5;exitDx=0;exitDy=0;entryX=0;entryY=0.5;entryDx=0;entryDy=0;strokeColor=#006658;fillColor=#21C0A5;fontColor=#5C5C5C;fontSize=17;" edge="1" parent="_j7o3qWeJItCtNG2WgHt-128" source="_j7o3qWeJItCtNG2WgHt-5" target="_j7o3qWeJItCtNG2WgHt-48">
          <mxGeometry relative="1" as="geometry" />
        </mxCell>
        <mxCell id="_j7o3qWeJItCtNG2WgHt-52" value="kubernetes API" style="rounded=0;whiteSpace=wrap;html=1;sketch=0;strokeColor=#006658;fontColor=#5C5C5C;fontSize=17;verticalAlign=bottom;fillColor=#D5E8D4;" vertex="1" parent="_j7o3qWeJItCtNG2WgHt-128">
          <mxGeometry x="1208.59" y="202.62" width="221.41" height="200.18" as="geometry" />
        </mxCell>
        <mxCell id="_j7o3qWeJItCtNG2WgHt-54" style="edgeStyle=orthogonalEdgeStyle;rounded=1;sketch=0;orthogonalLoop=1;jettySize=auto;html=1;entryX=0;entryY=0.5;entryDx=0;entryDy=0;strokeColor=#006658;fillColor=#21C0A5;fontColor=#5C5C5C;fontSize=17;" edge="1" parent="_j7o3qWeJItCtNG2WgHt-128" target="_j7o3qWeJItCtNG2WgHt-51">
          <mxGeometry relative="1" as="geometry">
            <mxPoint x="909.7942905121747" y="303.9264705882353" as="sourcePoint" />
          </mxGeometry>
        </mxCell>
        <mxCell id="_j7o3qWeJItCtNG2WgHt-57" style="rounded=1;sketch=0;orthogonalLoop=1;jettySize=auto;html=1;entryX=0;entryY=0.5;entryDx=0;entryDy=0;strokeColor=#006658;fillColor=#21C0A5;fontColor=#5C5C5C;fontSize=17;" edge="1" parent="_j7o3qWeJItCtNG2WgHt-128" target="_j7o3qWeJItCtNG2WgHt-52">
          <mxGeometry relative="1" as="geometry">
            <mxPoint x="909.7942905121747" y="302.70588235294116" as="sourcePoint" />
          </mxGeometry>
        </mxCell>
        <mxCell id="_j7o3qWeJItCtNG2WgHt-61" value="sdfsdf" style="group;fontSize=17;" vertex="1" connectable="0" parent="_j7o3qWeJItCtNG2WgHt-128">
          <mxGeometry x="1123.2178841309824" y="463.8235294117647" width="304.8908480268682" height="218.48529411764704" as="geometry" />
        </mxCell>
        <mxCell id="_j7o3qWeJItCtNG2WgHt-62" value="" style="rounded=1;whiteSpace=wrap;html=1;sketch=0;strokeColor=#006658;fontColor=#5C5C5C;opacity=70;strokeWidth=2;shadow=0;fillColor=#D5E8D4;glass=0;fontSize=17;" vertex="1" parent="_j7o3qWeJItCtNG2WgHt-61">
          <mxGeometry x="9.835188646028005" y="9.103553921568626" width="295.05565938084027" height="209.3817401960784" as="geometry" />
        </mxCell>
        <mxCell id="_j7o3qWeJItCtNG2WgHt-63" value="Node" style="rounded=1;whiteSpace=wrap;html=1;sketch=0;strokeColor=#006658;fontColor=#5C5C5C;strokeWidth=2;shadow=0;fillColor=#D5E8D4;glass=0;labelPosition=center;verticalLabelPosition=top;align=center;verticalAlign=bottom;fontSize=17;" vertex="1" parent="_j7o3qWeJItCtNG2WgHt-61">
          <mxGeometry width="295.05303666386794" height="201.6787330316742" as="geometry" />
        </mxCell>
        <mxCell id="_j7o3qWeJItCtNG2WgHt-68" value="kubelet" style="rounded=0;whiteSpace=wrap;html=1;shadow=0;glass=0;sketch=0;strokeColor=#006658;strokeWidth=2;fillColor=#21C0A5;fontColor=#5C5C5C;fontSize=17;" vertex="1" parent="_j7o3qWeJItCtNG2WgHt-61">
          <mxGeometry x="158.54324097397148" y="151.35294117647058" width="112.12665827036105" height="36.61764705882353" as="geometry" />
        </mxCell>
        <mxCell id="_j7o3qWeJItCtNG2WgHt-90" value="fluentd" style="rounded=0;whiteSpace=wrap;html=1;shadow=0;glass=0;sketch=0;strokeColor=#006658;strokeWidth=2;fillColor=#21C0A5;fontColor=#5C5C5C;fontSize=17;" vertex="1" parent="_j7o3qWeJItCtNG2WgHt-61">
          <mxGeometry x="24.391267842149457" y="151.35294117647058" width="112.12665827036105" height="36.61764705882353" as="geometry" />
        </mxCell>
        <mxCell id="_j7o3qWeJItCtNG2WgHt-114" value="app pod" style="rounded=0;whiteSpace=wrap;html=1;shadow=0;glass=0;sketch=0;strokeColor=#b85450;strokeWidth=2;fillColor=#f8cecc;fontSize=17;" vertex="1" parent="_j7o3qWeJItCtNG2WgHt-61">
          <mxGeometry x="24.391267842149457" y="24.41176470588235" width="109.76070528967254" height="36.61764705882353" as="geometry" />
        </mxCell>
        <mxCell id="_j7o3qWeJItCtNG2WgHt-115" value="build pod" style="rounded=0;whiteSpace=wrap;html=1;shadow=0;glass=0;sketch=0;strokeColor=#b85450;strokeWidth=2;fillColor=#f8cecc;fontSize=17;" vertex="1" parent="_j7o3qWeJItCtNG2WgHt-61">
          <mxGeometry x="159.72621746431577" y="24.41176470588235" width="109.76070528967254" height="36.61764705882353" as="geometry" />
        </mxCell>
        <mxCell id="_j7o3qWeJItCtNG2WgHt-71" style="edgeStyle=orthogonalEdgeStyle;rounded=1;sketch=0;orthogonalLoop=1;jettySize=auto;html=1;strokeColor=#006658;fillColor=#21C0A5;fontColor=#5C5C5C;entryX=0.5;entryY=1;entryDx=0;entryDy=0;fontSize=17;" edge="1" parent="_j7o3qWeJItCtNG2WgHt-128" source="_j7o3qWeJItCtNG2WgHt-50" target="_j7o3qWeJItCtNG2WgHt-68">
          <mxGeometry relative="1" as="geometry">
            <Array as="points">
              <mxPoint x="611.0012594458439" y="568.7941176470588" />
              <mxPoint x="611.0012594458439" y="720.1470588235294" />
              <mxPoint x="1337.8610411418977" y="720.1470588235294" />
            </Array>
          </mxGeometry>
        </mxCell>
        <mxCell id="_j7o3qWeJItCtNG2WgHt-82" style="edgeStyle=orthogonalEdgeStyle;rounded=1;sketch=0;orthogonalLoop=1;jettySize=auto;html=1;entryX=0.5;entryY=1;entryDx=0;entryDy=0;startArrow=classic;startFill=1;endArrow=classic;endFill=1;strokeColor=#006658;fillColor=#21C0A5;fontColor=#5C5C5C;fontSize=17;" edge="1" parent="_j7o3qWeJItCtNG2WgHt-128" source="_j7o3qWeJItCtNG2WgHt-76" target="_j7o3qWeJItCtNG2WgHt-51">
          <mxGeometry relative="1" as="geometry" />
        </mxCell>
        <mxCell id="_j7o3qWeJItCtNG2WgHt-76" value="cf-api-deployment-updater" style="rounded=0;whiteSpace=wrap;html=1;sketch=0;strokeColor=#006658;fillColor=#21C0A5;fontColor=#5C5C5C;fontSize=17;" vertex="1" parent="_j7o3qWeJItCtNG2WgHt-128">
          <mxGeometry x="806.1314021830395" y="464.43382352941177" width="146.34760705289673" height="73.23529411764706" as="geometry" />
        </mxCell>
        <mxCell id="_j7o3qWeJItCtNG2WgHt-80" style="edgeStyle=orthogonalEdgeStyle;rounded=1;sketch=0;orthogonalLoop=1;jettySize=auto;html=1;entryX=1;entryY=0.5;entryDx=0;entryDy=0;startArrow=classic;startFill=1;endArrow=classic;endFill=1;strokeColor=#006658;fillColor=#21C0A5;fontColor=#5C5C5C;exitX=0;exitY=0.5;exitDx=0;exitDy=0;fontSize=17;" edge="1" parent="_j7o3qWeJItCtNG2WgHt-128" source="_j7o3qWeJItCtNG2WgHt-77" target="_j7o3qWeJItCtNG2WgHt-27">
          <mxGeometry relative="1" as="geometry" />
        </mxCell>
        <mxCell id="_j7o3qWeJItCtNG2WgHt-83" style="edgeStyle=orthogonalEdgeStyle;rounded=1;sketch=0;orthogonalLoop=1;jettySize=auto;html=1;startArrow=classic;startFill=1;endArrow=classic;endFill=1;strokeColor=#006658;fillColor=#21C0A5;fontColor=#5C5C5C;fontSize=17;" edge="1" parent="_j7o3qWeJItCtNG2WgHt-128" source="_j7o3qWeJItCtNG2WgHt-77" target="_j7o3qWeJItCtNG2WgHt-51">
          <mxGeometry relative="1" as="geometry" />
        </mxCell>
        <mxCell id="_j7o3qWeJItCtNG2WgHt-77" value="cf-api-worker" style="rounded=0;whiteSpace=wrap;html=1;sketch=0;strokeColor=#006658;fillColor=#21C0A5;fontColor=#5C5C5C;fontSize=17;" vertex="1" parent="_j7o3qWeJItCtNG2WgHt-128">
          <mxGeometry x="806.1314021830395" y="549.875" width="146.34760705289673" height="73.23529411764706" as="geometry" />
        </mxCell>
        <mxCell id="_j7o3qWeJItCtNG2WgHt-81" style="edgeStyle=orthogonalEdgeStyle;rounded=1;sketch=0;orthogonalLoop=1;jettySize=auto;html=1;entryX=1;entryY=0.5;entryDx=0;entryDy=0;startArrow=classic;startFill=1;endArrow=classic;endFill=1;strokeColor=#006658;fillColor=#21C0A5;fontColor=#5C5C5C;fontSize=17;" edge="1" parent="_j7o3qWeJItCtNG2WgHt-128" source="_j7o3qWeJItCtNG2WgHt-78" target="_j7o3qWeJItCtNG2WgHt-27">
          <mxGeometry relative="1" as="geometry" />
        </mxCell>
        <mxCell id="_j7o3qWeJItCtNG2WgHt-84" style="edgeStyle=orthogonalEdgeStyle;rounded=1;sketch=0;orthogonalLoop=1;jettySize=auto;html=1;startArrow=classic;startFill=1;endArrow=classic;endFill=1;strokeColor=#006658;fillColor=#21C0A5;fontColor=#5C5C5C;fontSize=17;" edge="1" parent="_j7o3qWeJItCtNG2WgHt-128" source="_j7o3qWeJItCtNG2WgHt-78" target="_j7o3qWeJItCtNG2WgHt-51">
          <mxGeometry relative="1" as="geometry" />
        </mxCell>
        <mxCell id="_j7o3qWeJItCtNG2WgHt-78" value="cf-api-clock" style="rounded=0;whiteSpace=wrap;html=1;sketch=0;strokeColor=#006658;fillColor=#21C0A5;fontColor=#5C5C5C;fontSize=17;" vertex="1" parent="_j7o3qWeJItCtNG2WgHt-128">
          <mxGeometry x="806.1314021830395" y="634.7058823529411" width="146.34760705289673" height="73.23529411764706" as="geometry" />
        </mxCell>
        <mxCell id="_j7o3qWeJItCtNG2WgHt-91" style="edgeStyle=orthogonalEdgeStyle;rounded=1;sketch=0;orthogonalLoop=1;jettySize=auto;html=1;exitX=0.5;exitY=1;exitDx=0;exitDy=0;entryX=1;entryY=0.5;entryDx=0;entryDy=0;startArrow=classic;startFill=1;endArrow=none;endFill=0;strokeColor=#006658;fillColor=#21C0A5;fontColor=#5C5C5C;fontSize=17;" edge="1" parent="_j7o3qWeJItCtNG2WgHt-128" source="_j7o3qWeJItCtNG2WgHt-90" target="_j7o3qWeJItCtNG2WgHt-48">
          <mxGeometry relative="1" as="geometry">
            <Array as="points">
              <mxPoint x="1203.7090680100755" y="720.1470588235294" />
              <mxPoint x="598.8056255247691" y="720.1470588235294" />
              <mxPoint x="598.8056255247691" y="671.3235294117646" />
            </Array>
          </mxGeometry>
        </mxCell>
        <mxCell id="_j7o3qWeJItCtNG2WgHt-95" style="edgeStyle=orthogonalEdgeStyle;rounded=1;sketch=0;orthogonalLoop=1;jettySize=auto;html=1;startArrow=classic;startFill=1;endArrow=classic;endFill=1;strokeColor=#006658;fillColor=#21C0A5;fontColor=#5C5C5C;fontSize=17;" edge="1" parent="_j7o3qWeJItCtNG2WgHt-128" source="_j7o3qWeJItCtNG2WgHt-93" target="_j7o3qWeJItCtNG2WgHt-52">
          <mxGeometry relative="1" as="geometry" />
        </mxCell>
        <mxCell id="_j7o3qWeJItCtNG2WgHt-97" style="edgeStyle=orthogonalEdgeStyle;rounded=1;sketch=0;orthogonalLoop=1;jettySize=auto;html=1;entryX=1;entryY=0.25;entryDx=0;entryDy=0;startArrow=none;startFill=0;endArrow=classic;endFill=1;strokeColor=#006658;fillColor=#21C0A5;fontColor=#5C5C5C;fontSize=17;" edge="1" parent="_j7o3qWeJItCtNG2WgHt-128" source="_j7o3qWeJItCtNG2WgHt-93" target="_j7o3qWeJItCtNG2WgHt-7">
          <mxGeometry relative="1" as="geometry" />
        </mxCell>
        <mxCell id="_j7o3qWeJItCtNG2WgHt-93" value="cf-api-controllers" style="rounded=0;whiteSpace=wrap;html=1;sketch=0;strokeColor=#006658;fillColor=#21C0A5;fontColor=#5C5C5C;fontSize=17;" vertex="1" parent="_j7o3qWeJItCtNG2WgHt-128">
          <mxGeometry x="976.8702770780857" y="195.2941176470588" width="146.34760705289673" height="56.14705882352941" as="geometry" />
        </mxCell>
        <mxCell id="_j7o3qWeJItCtNG2WgHt-94" style="edgeStyle=orthogonalEdgeStyle;rounded=1;sketch=0;orthogonalLoop=1;jettySize=auto;html=1;exitX=0.5;exitY=1;exitDx=0;exitDy=0;entryX=0.5;entryY=0;entryDx=0;entryDy=0;startArrow=none;startFill=0;endArrow=classic;endFill=1;strokeColor=#006658;fillColor=#21C0A5;fontColor=#5C5C5C;fontSize=17;" edge="1" parent="_j7o3qWeJItCtNG2WgHt-128" source="_j7o3qWeJItCtNG2WgHt-7" target="_j7o3qWeJItCtNG2WgHt-50">
          <mxGeometry relative="1" as="geometry" />
        </mxCell>
        <mxCell id="_j7o3qWeJItCtNG2WgHt-99" style="edgeStyle=orthogonalEdgeStyle;rounded=1;sketch=0;orthogonalLoop=1;jettySize=auto;html=1;entryX=0.5;entryY=0;entryDx=0;entryDy=0;startArrow=classic;startFill=1;endArrow=classic;endFill=1;strokeColor=#006658;fillColor=#21C0A5;fontColor=#5C5C5C;fontSize=17;" edge="1" parent="_j7o3qWeJItCtNG2WgHt-128" source="_j7o3qWeJItCtNG2WgHt-98" target="_j7o3qWeJItCtNG2WgHt-52">
          <mxGeometry relative="1" as="geometry" />
        </mxCell>
        <mxCell id="_j7o3qWeJItCtNG2WgHt-98" value="route controller" style="rounded=0;whiteSpace=wrap;html=1;sketch=0;strokeColor=#006658;fillColor=#21C0A5;fontColor=#5C5C5C;fontSize=17;" vertex="1" parent="_j7o3qWeJItCtNG2WgHt-128">
          <mxGeometry x="976.8702770780857" y="109.85294117647058" width="146.34760705289673" height="56.14705882352941" as="geometry" />
        </mxCell>
        <mxCell id="_j7o3qWeJItCtNG2WgHt-109" value="resource match&lt;br style=&quot;font-size: 17px&quot;&gt;blobstore" style="shape=datastore;whiteSpace=wrap;html=1;rounded=0;shadow=0;glass=0;sketch=0;strokeColor=#006658;strokeWidth=2;fillColor=#21C0A5;fontColor=#5C5C5C;fontSize=17;" vertex="1" parent="_j7o3qWeJItCtNG2WgHt-128">
          <mxGeometry x="653.6841099916036" y="20.002941176470586" width="109.76070528967254" height="102.52941176470588" as="geometry" />
        </mxCell>
        <mxCell id="_j7o3qWeJItCtNG2WgHt-117" style="edgeStyle=orthogonalEdgeStyle;rounded=1;sketch=0;orthogonalLoop=1;jettySize=auto;html=1;exitX=0.75;exitY=0;exitDx=0;exitDy=0;entryX=0.5;entryY=1;entryDx=0;entryDy=0;startArrow=none;startFill=0;endArrow=classic;endFill=1;strokeColor=#006658;fillColor=#21C0A5;fontColor=#5C5C5C;fontSize=17;" edge="1" parent="_j7o3qWeJItCtNG2WgHt-128" source="_j7o3qWeJItCtNG2WgHt-7" target="_j7o3qWeJItCtNG2WgHt-109">
          <mxGeometry relative="1" as="geometry" />
        </mxCell>
        <mxCell id="_j7o3qWeJItCtNG2WgHt-119" style="edgeStyle=orthogonalEdgeStyle;rounded=1;sketch=0;orthogonalLoop=1;jettySize=auto;html=1;entryX=0.5;entryY=0;entryDx=0;entryDy=0;startArrow=none;startFill=0;endArrow=classic;endFill=1;strokeColor=#006658;fillColor=#21C0A5;fontColor=#5C5C5C;fontSize=17;" edge="1" parent="_j7o3qWeJItCtNG2WgHt-128" source="_j7o3qWeJItCtNG2WgHt-68" target="_j7o3qWeJItCtNG2WgHt-31">
          <mxGeometry relative="1" as="geometry">
            <Array as="points">
              <mxPoint x="1452.5" y="633.4852941176471" />
              <mxPoint x="1452.5" />
              <mxPoint x="836.6204869857263" />
            </Array>
          </mxGeometry>
        </mxCell>
        <mxCell id="_j7o3qWeJItCtNG2WgHt-59" style="edgeStyle=orthogonalEdgeStyle;rounded=1;sketch=0;orthogonalLoop=1;jettySize=auto;html=1;entryX=0;entryY=0.5;entryDx=0;entryDy=0;strokeColor=#006658;fillColor=#21C0A5;fontColor=#5C5C5C;fontSize=17;" edge="1" parent="_j7o3qWeJItCtNG2WgHt-128" source="_j7o3qWeJItCtNG2WgHt-51" target="_j7o3qWeJItCtNG2WgHt-52">
          <mxGeometry relative="1" as="geometry" />
        </mxCell>
        <mxCell id="_j7o3qWeJItCtNG2WgHt-79" style="edgeStyle=orthogonalEdgeStyle;rounded=1;sketch=0;orthogonalLoop=1;jettySize=auto;html=1;entryX=0;entryY=0.5;entryDx=0;entryDy=0;strokeColor=#006658;fillColor=#21C0A5;fontColor=#5C5C5C;startArrow=classic;startFill=1;endArrow=classic;endFill=1;fontSize=17;" edge="1" parent="_j7o3qWeJItCtNG2WgHt-128" source="_j7o3qWeJItCtNG2WgHt-27" target="_j7o3qWeJItCtNG2WgHt-76">
          <mxGeometry relative="1" as="geometry" />
        </mxCell>
        <mxCell id="_j7o3qWeJItCtNG2WgHt-200" value="StatefulSets" style="rounded=0;whiteSpace=wrap;html=1;shadow=0;glass=0;sketch=0;strokeColor=#006658;strokeWidth=2;fillColor=#D5E8D4;fontSize=17;fontColor=#5C5C5C;" vertex="1" parent="_j7o3qWeJItCtNG2WgHt-128">
          <mxGeometry x="1223.66" y="312.47" width="104" height="35.18" as="geometry" />
        </mxCell>
        <mxCell id="_j7o3qWeJItCtNG2WgHt-202" value="Images" style="rounded=0;whiteSpace=wrap;html=1;shadow=0;glass=0;sketch=0;strokeColor=#006658;strokeWidth=2;fillColor=#D5E8D4;fontSize=17;fontColor=#5C5C5C;" vertex="1" parent="_j7o3qWeJItCtNG2WgHt-128">
          <mxGeometry x="1223.66" y="270" width="104" height="35.18" as="geometry" />
        </mxCell>
        <mxCell id="_j7o3qWeJItCtNG2WgHt-201" value="Routes" style="rounded=0;whiteSpace=wrap;html=1;shadow=0;glass=0;sketch=0;strokeColor=#006658;strokeWidth=2;fillColor=#D5E8D4;fontSize=17;fontColor=#5C5C5C;" vertex="1" parent="_j7o3qWeJItCtNG2WgHt-128">
          <mxGeometry x="1223.66" y="227.00000000000006" width="104" height="35.18" as="geometry" />
        </mxCell>
        <mxCell id="_j7o3qWeJItCtNG2WgHt-101" value="kpack controller" style="rounded=0;whiteSpace=wrap;html=1;sketch=0;strokeColor=#006658;fillColor=#21C0A5;fontColor=#5C5C5C;fontSize=17;" vertex="1" parent="1">
          <mxGeometry x="1000.8702770780857" y="124.41176470588235" width="146.34760705289673" height="56.14705882352941" as="geometry" />
        </mxCell>
        <mxCell id="_j7o3qWeJItCtNG2WgHt-103" style="edgeStyle=orthogonalEdgeStyle;rounded=1;sketch=0;orthogonalLoop=1;jettySize=auto;html=1;startArrow=classic;startFill=1;endArrow=classic;endFill=1;strokeColor=#006658;fillColor=#21C0A5;fontColor=#5C5C5C;fontSize=17;" edge="1" parent="1" source="_j7o3qWeJItCtNG2WgHt-101" target="_j7o3qWeJItCtNG2WgHt-52">
          <mxGeometry relative="1" as="geometry" />
        </mxCell>
        <mxCell id="_j7o3qWeJItCtNG2WgHt-118" style="edgeStyle=orthogonalEdgeStyle;rounded=1;sketch=0;orthogonalLoop=1;jettySize=auto;html=1;entryX=1;entryY=0.5;entryDx=0;entryDy=0;startArrow=none;startFill=0;endArrow=classic;endFill=1;strokeColor=#006658;fillColor=#21C0A5;fontColor=#5C5C5C;fontSize=17;" edge="1" parent="1" source="_j7o3qWeJItCtNG2WgHt-101" target="_j7o3qWeJItCtNG2WgHt-31">
          <mxGeometry relative="1" as="geometry" />
        </mxCell>
      </root>
    </mxGraphModel>
  </diagram>
</mxfile>
